<?xml version="1.0" encoding="iso-8859-1"?>
<!-- Generator: Adobe Illustrator 19.0.0, SVG Export Plug-In . SVG Version: 6.00 Build 0)  -->
<svg version="1.1" id="Capa_1" xmlns="http://www.w3.org/2000/svg" xmlns:xlink="http://www.w3.org/1999/xlink" x="0px" y="0px"
	 viewBox="0 0 448.001 448.001" style="enable-background:new 0 0 448.001 448.001;" xml:space="preserve">
<g>
	<g>
		<rect x="216" y="344.001" width="16" height="16"/>
	</g>
</g>
<g>
	<g>
		<rect x="216" y="312.001" width="16" height="16"/>
	</g>
</g>
<g>
	<g>
		
			<rect x="326.042" y="161.224" transform="matrix(0.8944 -0.4472 0.4472 0.8944 -40.4519 167.0905)" width="15.272" height="15.999"/>
	</g>
</g>
<g>
	<g>
		<path d="M443.71,112.002c-5.928-10.265-16.682-16.003-27.738-16.002c-5.428,0-10.932,1.383-15.969,4.292
			c-12.31,7.108-17.959,21.147-15.154,34.339l-6.91,3.455l7.157,14.312l6.99-3.495c6.166,7.057,14.873,11.097,23.945,11.097
			c5.428,0,10.932-1.384,15.969-4.292C447.301,146.874,452.543,127.306,443.71,112.002z M423.999,141.852
			c-2.469,1.426-5.15,2.149-7.969,2.149c-5.713,0-11.031-3.066-13.881-8.002c-4.41-7.639-1.783-17.441,5.854-21.85
			c2.469-1.426,5.15-2.149,7.97-2.149c5.711,0,11.03,3.066,13.879,8.001C434.263,127.64,431.635,137.442,423.999,141.852z"/>
	</g>
</g>
<g>
	<g>
		
			<rect x="353.347" y="147.498" transform="matrix(0.8944 -0.4472 0.4472 0.8944 -31.4299 177.8565)" width="15.288" height="15.999"/>
	</g>
</g>
<g>
	<g>
		<rect x="298.702" y="174.822" transform="matrix(0.8944 -0.4472 0.4472 0.8944 -49.4188 156.303)" width="15.288" height="16"/>
	</g>
</g>
<g>
	<g>
		<rect x="106.312" y="161.526" transform="matrix(0.4472 -0.8944 0.8944 0.4472 -88.1129 195.7548)" width="16" height="15.271"/>
	</g>
</g>
<g>
	<g>
		
			<rect x="78.986" y="147.861" transform="matrix(0.4472 -0.8944 0.8944 0.4472 -91.0031 163.7624)" width="15.999" height="15.288"/>
	</g>
</g>
<g>
	<g>
		
			<rect x="133.652" y="175.187" transform="matrix(0.4472 -0.8944 0.8944 0.4472 -85.2251 227.7639)" width="15.999" height="15.288"/>
	</g>
</g>
<g>
	<g>
		<path d="M63.152,134.631c2.805-13.191-2.844-27.23-15.154-34.339C42.959,97.384,37.459,96,32.03,96.001
			c-11.057,0-21.813,5.738-27.738,16.002c-8.834,15.304-3.592,34.871,11.711,43.706c5.039,2.909,10.539,4.292,15.969,4.292
			c9.072,0,17.782-4.042,23.947-11.097l6.988,3.495l7.156-14.313L63.152,134.631z M45.853,135.998
			c-2.85,4.936-8.169,8.002-13.882,8.002c-2.818,0-5.5-0.722-7.969-2.149c-7.637-4.41-10.264-14.211-5.856-21.848
			c2.852-4.937,8.172-8.003,13.885-8.003c2.817,0,5.498,0.722,7.966,2.149C47.634,118.558,50.262,128.361,45.853,135.998z"/>
	</g>
</g>
<g>
	<g>
		<path d="M239.999,388.293c-2.568-1.483-5.26-2.549-7.998-3.258v-9.034h-16v9.039c-8.022,2.074-15.24,7.222-19.709,14.963
			c-8.834,15.304-3.592,34.871,11.711,43.706c5.039,2.908,10.539,4.291,15.969,4.291c11.057,0,21.813-5.739,27.738-16.003
			C260.543,416.695,255.301,397.128,239.999,388.293z M237.854,423.998c-2.851,4.937-8.17,8.003-13.882,8.003
			c-2.818,0-5.5-0.722-7.969-2.149c-7.637-4.41-10.264-14.212-5.855-21.849c2.851-4.936,8.171-8.002,13.884-8.002
			c2.817,0,5.498,0.722,7.966,2.149C239.635,406.558,242.262,416.36,237.854,423.998z"/>
	</g>
</g>
<g>
	<g>
		<path d="M400,288.001c-14.129,0-26.703,6.217-35.488,15.932l-82.805-52.694c3.926-8.291,6.293-17.456,6.293-27.238
			c0-7.444-1.518-14.482-3.855-21.128l5.262-2.63l-7.156-14.313l-5.05,2.526c-10.062-15.032-26.394-25.276-45.199-27.649V95.194
			c22.682-3.826,40-23.424,40-47.194c0-26.51-21.49-48-48-48c-26.51,0-48,21.49-48,48c0,23.77,17.318,43.367,40,47.194v65.614
			c-18.805,2.372-35.137,12.616-45.199,27.649l-5.05-2.526l-7.156,14.313l5.262,2.63c-2.339,6.646-3.857,13.684-3.857,21.128
			c0,9.782,2.369,18.947,6.293,27.239l-82.805,52.694c-8.785-9.716-21.359-15.933-35.488-15.933c-26.51,0-48,21.49-48,48
			c0,26.51,21.49,48,48,48s48-21.49,48-48c0-6.62-1.344-12.926-3.766-18.665l82.738-52.652
			c10.115,12.175,24.527,20.429,41.027,22.51v8.806h16v-8.806c16.5-2.082,30.91-10.336,41.027-22.51l82.738,52.652
			c-2.422,5.738-3.766,12.045-3.766,18.665c0,26.51,21.49,48,48,48c26.51,0,48-21.49,48-48C448,309.491,426.511,288.001,400,288.001
			z M48,368.001c-17.645,0-32-14.355-32-32c0-17.646,14.355-32,32-32s32,14.354,32,32C80,353.646,65.645,368.001,48,368.001z
			 M192,48.001c0-17.646,14.355-32,32-32c17.645,0,32,14.354,32,32c0,17.645-14.355,32-32,32C206.355,80.001,192,65.646,192,48.001z
			 M224,272.001c-26.466,0-48-21.534-48-48c0-26.468,21.534-48,48-48c26.466,0,48,21.532,48,48
			C272,250.467,250.467,272.001,224,272.001z M400,368.001c-17.645,0-32-14.355-32-32c0-17.646,14.355-32,32-32
			c17.645,0,32,14.354,32,32C432,353.646,417.645,368.001,400,368.001z"/>
	</g>
</g>
<g>
</g>
<g>
</g>
<g>
</g>
<g>
</g>
<g>
</g>
<g>
</g>
<g>
</g>
<g>
</g>
<g>
</g>
<g>
</g>
<g>
</g>
<g>
</g>
<g>
</g>
<g>
</g>
<g>
</g>
</svg>
